<svg width="132" height="40" viewBox="0 0 132 20" fill="none" xmlns="http://www.w3.org/2000/svg">
<path d="M10.3476 4.06C13.0276 4.32667 15.0742 5.02 16.4876 6.14C17.9009 7.26 18.6076 8.8 18.6076 10.76C18.6076 12.1867 18.2342 13.44 17.4876 14.52C16.7542 15.5867 15.7076 16.42 14.3476 17.02C13.0009 17.6067 11.4276 17.9 9.62758 17.9H8.32758C7.74091 17.9 7.32091 17.8 7.06758 17.6C6.81424 17.4 6.68758 17.06 6.68758 16.58C6.68758 16.1667 6.77424 15.86 6.94758 15.66C7.13424 15.4467 7.42091 15.34 7.80758 15.34H8.00758L7.76758 6.52H7.64758C7.35424 6.52 7.11424 6.42 6.92758 6.22C6.75424 6.00667 6.66758 5.69333 6.66758 5.28C6.66758 4.82667 6.76758 4.49333 6.96758 4.28C7.18091 4.05333 7.44758 3.94 7.76758 3.94H8.02758C8.25424 3.71333 8.62758 3.6 9.14758 3.6C9.74758 3.6 10.1476 3.75333 10.3476 4.06ZM10.9076 15.28C11.8009 15.1733 12.6076 14.9267 13.3276 14.54C14.0609 14.14 14.6409 13.62 15.0676 12.98C15.4942 12.3267 15.7076 11.5867 15.7076 10.76C15.7076 9.50667 15.2542 8.56667 14.3476 7.94C13.4409 7.3 12.2142 6.88 10.6676 6.68L10.9076 15.28ZM25.7235 18.06C24.0302 18.06 22.6835 17.62 21.6835 16.74C20.6968 15.8467 20.2035 14.6 20.2035 13C20.2035 11.96 20.4235 11.0333 20.8635 10.22C21.3035 9.40667 21.9235 8.77333 22.7235 8.32C23.5368 7.86667 24.4902 7.64 25.5835 7.64C26.6902 7.64 27.6635 7.87333 28.5035 8.34C29.3435 8.80667 29.9902 9.46 30.4435 10.3C30.9102 11.1267 31.1435 12.0733 31.1435 13.14C31.1435 14.7 30.6568 15.9133 29.6835 16.78C28.7102 17.6333 27.3902 18.06 25.7235 18.06ZM25.6835 15.84C26.4968 15.84 27.1235 15.6133 27.5635 15.16C28.0168 14.6933 28.2435 14.0067 28.2435 13.1C28.2435 12.2067 28.0235 11.4467 27.5835 10.82C27.1568 10.18 26.5235 9.86 25.6835 9.86C24.8968 9.86 24.2702 10.1467 23.8035 10.72C23.3368 11.2933 23.1035 12.06 23.1035 13.02C23.1035 13.9533 23.3302 14.66 23.7835 15.14C24.2368 15.6067 24.8702 15.84 25.6835 15.84ZM37.672 18.02C36.6853 18.02 35.7986 17.8133 35.012 17.4C34.2386 16.9867 33.632 16.4067 33.192 15.66C32.7653 14.9133 32.552 14.0533 32.552 13.08C32.552 12.08 32.7786 11.1733 33.232 10.36C33.6853 9.53333 34.312 8.88667 35.112 8.42C35.9253 7.94 36.8386 7.7 37.852 7.7C38.932 7.7 39.892 7.96 40.732 8.48C41.5853 9 42.172 9.67333 42.492 10.5C42.5986 10.7533 42.652 10.9733 42.652 11.16C42.652 11.6 42.3453 11.8933 41.732 12.04C41.5586 12.08 41.3986 12.1 41.252 12.1C40.9853 12.1 40.7653 12.0333 40.592 11.9C40.432 11.7533 40.252 11.52 40.052 11.2C39.7986 10.8133 39.512 10.5067 39.192 10.28C38.872 10.04 38.4786 9.92 38.012 9.92C37.2653 9.92 36.652 10.2267 36.172 10.84C35.692 11.44 35.452 12.2 35.452 13.12C35.452 13.96 35.6653 14.62 36.092 15.1C36.532 15.5667 37.1653 15.8 37.992 15.8C38.7786 15.8 39.3586 15.6 39.732 15.2C40.1186 14.7867 40.312 14.3067 40.312 13.76C40.312 13.5467 40.4186 13.3533 40.632 13.18C40.8586 12.9933 41.1586 12.9 41.532 12.9C41.9853 12.9 42.3253 12.9867 42.552 13.16C42.792 13.3333 42.912 13.64 42.912 14.08C42.912 14.7467 42.7386 15.38 42.392 15.98C42.0453 16.58 41.4786 17.0733 40.692 17.46C39.9186 17.8333 38.912 18.02 37.672 18.02ZM50.7251 14.02C51.1651 14.02 51.4851 14.1067 51.6851 14.28C51.8851 14.4533 51.9851 14.7333 51.9851 15.12C51.9851 16 51.7051 16.7067 51.1451 17.24C50.5851 17.7733 49.8784 18.04 49.0251 18.04C47.8651 18.04 47.0184 17.5733 46.4851 16.64C45.9517 15.6933 45.6851 14.2 45.6851 12.16C45.6851 11.5467 45.6917 11.1 45.7051 10.82C45.6117 10.8067 45.4584 10.8 45.2451 10.8C44.4851 10.7867 44.1051 10.42 44.1051 9.7C44.1051 9.32667 44.1984 9.04667 44.3851 8.86C44.5851 8.67333 44.9317 8.58667 45.4251 8.6L45.8651 8.62C45.9584 7.79333 46.1117 6.78 46.3251 5.58C46.3784 5.26 46.5251 5.02 46.7651 4.86C47.0184 4.68667 47.3384 4.6 47.7251 4.6C48.1784 4.6 48.5317 4.70667 48.7851 4.92C49.0384 5.13333 49.1651 5.39333 49.1651 5.7L49.1451 5.86L49.0451 6.5C48.8851 7.59333 48.7784 8.34 48.7251 8.74C49.1784 8.76667 49.5251 8.78 49.7651 8.78C50.4451 8.79333 50.7851 9.14667 50.7851 9.84C50.7851 10.1867 50.6917 10.4467 50.5051 10.62C50.3184 10.7933 50.0051 10.88 49.5651 10.88H48.5651C48.5517 11.1467 48.5451 11.5733 48.5451 12.16C48.5451 13.1467 48.5651 13.9067 48.6051 14.44C48.6584 14.96 48.7317 15.3133 48.8251 15.5C48.9184 15.6867 49.0384 15.78 49.1851 15.78C49.3717 15.78 49.4917 15.72 49.5451 15.6C49.5984 15.48 49.6251 15.2667 49.6251 14.96C49.6251 14.3333 49.9917 14.02 50.7251 14.02ZM58.7118 18.06C57.0185 18.06 55.6718 17.62 54.6718 16.74C53.6851 15.8467 53.1918 14.6 53.1918 13C53.1918 11.96 53.4118 11.0333 53.8518 10.22C54.2918 9.40667 54.9118 8.77333 55.7118 8.32C56.5251 7.86667 57.4785 7.64 58.5718 7.64C59.6785 7.64 60.6518 7.87333 61.4918 8.34C62.3318 8.80667 62.9785 9.46 63.4318 10.3C63.8985 11.1267 64.1318 12.0733 64.1318 13.14C64.1318 14.7 63.6451 15.9133 62.6718 16.78C61.6985 17.6333 60.3785 18.06 58.7118 18.06ZM58.6718 15.84C59.4851 15.84 60.1118 15.6133 60.5518 15.16C61.0051 14.6933 61.2318 14.0067 61.2318 13.1C61.2318 12.2067 61.0118 11.4467 60.5718 10.82C60.1451 10.18 59.5118 9.86 58.6718 9.86C57.8851 9.86 57.2585 10.1467 56.7918 10.72C56.3251 11.2933 56.0918 12.06 56.0918 13.02C56.0918 13.9533 56.3185 14.66 56.7718 15.14C57.2251 15.6067 57.8585 15.84 58.6718 15.84ZM71.4802 7.62C72.0136 7.62 72.5069 7.74667 72.9602 8C73.4136 8.24 73.7736 8.58667 74.0402 9.04C74.3069 9.49333 74.4402 10.02 74.4402 10.62C74.4402 11.4867 74.1536 12.16 73.5802 12.64C73.0202 13.1067 72.2936 13.34 71.4002 13.34C70.9336 13.34 70.6069 13.2733 70.4202 13.14C70.2336 12.9933 70.1402 12.7533 70.1402 12.42C70.1402 12.1 70.2069 11.88 70.3402 11.76C70.4736 11.6267 70.6602 11.5467 70.9002 11.52C71.6869 11.44 72.0802 11.1133 72.0802 10.54C72.0802 10.3 72.0202 10.12 71.9002 10C71.7936 9.86667 71.6402 9.8 71.4402 9.8C71.0802 9.8 70.7469 10.0067 70.4402 10.42C70.1336 10.82 69.8802 11.2933 69.6802 11.84C69.4802 12.3733 69.3536 12.8267 69.3002 13.2C69.2069 13.7867 69.1602 14.8267 69.1602 16.32C69.1602 17.04 69.0536 17.5333 68.8402 17.8C68.6402 18.0533 68.2802 18.18 67.7602 18.18C67.2802 18.18 66.9136 18.0867 66.6602 17.9C66.4202 17.7133 66.2936 17.4267 66.2802 17.04V16.12V13.8C66.2802 12.9467 66.2602 12.2267 66.2202 11.64C66.1802 11.04 66.1136 10.2733 66.0202 9.34L65.9402 8.52C65.9136 8.18667 66.0202 7.91333 66.2602 7.7C66.5136 7.48667 66.8602 7.38 67.3002 7.38C68.0469 7.38 68.4469 7.71333 68.5002 8.38C68.5269 8.7 68.5536 9.15333 68.5802 9.74C68.8469 9.11333 69.2202 8.60667 69.7002 8.22C70.1936 7.82 70.7869 7.62 71.4802 7.62Z" fill="black"/>
<path d="M87.9813 11.56C88.4613 11.56 88.8346 11.6867 89.1013 11.94C89.3813 12.1933 89.5213 12.5333 89.5213 12.96C89.5213 13.9333 89.2479 14.8133 88.7013 15.6C88.1679 16.3733 87.4279 16.98 86.4813 17.42C85.5346 17.86 84.4746 18.08 83.3013 18.08C81.9146 18.08 80.6879 17.8067 79.6213 17.26C78.5679 16.7 77.7479 15.9133 77.1613 14.9C76.5746 13.8733 76.2813 12.6933 76.2813 11.36C76.2813 9.94667 76.5546 8.66 77.1013 7.5C77.6613 6.32667 78.4213 5.40667 79.3813 4.74C80.3413 4.06 81.4013 3.72 82.5613 3.72C84.0946 3.72 85.2746 4.08 86.1013 4.8V4.7C86.1013 4.44667 86.2279 4.22667 86.4813 4.04C86.7346 3.85333 87.0546 3.76 87.4413 3.76C87.8946 3.76 88.2479 3.87333 88.5013 4.1C88.7546 4.31333 88.8813 4.62667 88.8813 5.04L88.8613 6.96C88.8346 8.13333 88.3546 8.72 87.4213 8.72C87.2079 8.72 86.9946 8.68 86.7813 8.6C86.5813 8.52 86.4279 8.40667 86.3213 8.26C85.9746 7.79333 85.6946 7.44 85.4813 7.2C85.2679 6.96 84.9879 6.75333 84.6413 6.58C84.2946 6.40667 83.8679 6.32 83.3613 6.32C82.6813 6.32 82.0146 6.54667 81.3613 7C80.7213 7.45333 80.1946 8.06667 79.7813 8.84C79.3813 9.6 79.1813 10.4333 79.1813 11.34C79.1813 12.14 79.3613 12.8533 79.7213 13.48C80.0946 14.1067 80.5946 14.6 81.2213 14.96C81.8613 15.3067 82.5546 15.48 83.3013 15.48C83.8746 15.48 84.4079 15.3733 84.9013 15.16C85.3946 14.9467 85.7879 14.6467 86.0813 14.26C86.3879 13.86 86.5413 13.4133 86.5413 12.92C86.5413 12.52 86.6679 12.1933 86.9213 11.94C87.1746 11.6867 87.5279 11.56 87.9813 11.56ZM100.805 15.78C101.058 15.82 101.252 15.9133 101.385 16.06C101.532 16.2067 101.605 16.4667 101.605 16.84C101.605 17.16 101.518 17.4333 101.345 17.66C101.185 17.8867 100.965 18 100.685 18C100.112 18 99.6717 17.9333 99.365 17.8C99.0583 17.6533 98.7783 17.3933 98.525 17.02C98.2317 17.46 97.8317 17.7733 97.325 17.96C96.8183 18.1333 96.225 18.22 95.545 18.22C94.0383 18.22 92.8917 17.7867 92.105 16.92C91.3183 16.0533 90.925 14.8467 90.925 13.3C90.925 12.2867 91.1317 11.3867 91.545 10.6C91.9583 9.81333 92.5317 9.2 93.265 8.76C94.0117 8.32 94.865 8.1 95.825 8.1C96.305 8.1 96.7517 8.19333 97.165 8.38C97.5783 8.56667 97.8917 8.81333 98.105 9.12L98.145 8.86C98.1717 8.67333 98.2783 8.52 98.465 8.4C98.6517 8.26667 98.945 8.2 99.345 8.2C99.7717 8.2 100.085 8.28667 100.285 8.46C100.485 8.63333 100.585 8.85333 100.585 9.12C100.585 9.21333 100.578 9.28667 100.565 9.34C100.485 9.79333 100.405 10.5533 100.325 11.62C100.285 12.1133 100.265 12.7467 100.265 13.52V14.52C100.265 14.9067 100.298 15.2067 100.365 15.42C100.432 15.62 100.578 15.74 100.805 15.78ZM97.465 14.4C97.4783 13.8533 97.485 13.0067 97.485 11.86C97.485 11.4067 97.3317 11.04 97.025 10.76C96.7317 10.4667 96.3517 10.32 95.885 10.32C95.285 10.32 94.7917 10.6 94.405 11.16C94.0183 11.7067 93.825 12.4133 93.825 13.28C93.825 14.1067 93.9983 14.7667 94.345 15.26C94.6917 15.7533 95.1583 16 95.745 16C96.2917 16 96.7117 15.8667 97.005 15.6C97.2983 15.32 97.4517 14.92 97.465 14.4ZM109.15 7.62C109.683 7.62 110.177 7.74667 110.63 8C111.083 8.24 111.443 8.58667 111.71 9.04C111.977 9.49333 112.11 10.02 112.11 10.62C112.11 11.4867 111.823 12.16 111.25 12.64C110.69 13.1067 109.963 13.34 109.07 13.34C108.603 13.34 108.277 13.2733 108.09 13.14C107.903 12.9933 107.81 12.7533 107.81 12.42C107.81 12.1 107.877 11.88 108.01 11.76C108.143 11.6267 108.33 11.5467 108.57 11.52C109.357 11.44 109.75 11.1133 109.75 10.54C109.75 10.3 109.69 10.12 109.57 10C109.463 9.86667 109.31 9.8 109.11 9.8C108.75 9.8 108.417 10.0067 108.11 10.42C107.803 10.82 107.55 11.2933 107.35 11.84C107.15 12.3733 107.023 12.8267 106.97 13.2C106.877 13.7867 106.83 14.8267 106.83 16.32C106.83 17.04 106.723 17.5333 106.51 17.8C106.31 18.0533 105.95 18.18 105.43 18.18C104.95 18.18 104.583 18.0867 104.33 17.9C104.09 17.7133 103.963 17.4267 103.95 17.04V16.12V13.8C103.95 12.9467 103.93 12.2267 103.89 11.64C103.85 11.04 103.783 10.2733 103.69 9.34L103.61 8.52C103.583 8.18667 103.69 7.91333 103.93 7.7C104.183 7.48667 104.53 7.38 104.97 7.38C105.717 7.38 106.117 7.71333 106.17 8.38C106.197 8.7 106.223 9.15333 106.25 9.74C106.517 9.11333 106.89 8.60667 107.37 8.22C107.863 7.82 108.457 7.62 109.15 7.62ZM119.2 18.2C117.987 18.2 116.96 17.9733 116.12 17.52C115.293 17.0667 114.673 16.44 114.26 15.64C113.847 14.84 113.64 13.9333 113.64 12.92C113.64 11.9067 113.873 11.0067 114.34 10.22C114.82 9.42 115.467 8.8 116.28 8.36C117.107 7.92 118.027 7.7 119.04 7.7C119.947 7.7 120.773 7.88 121.52 8.24C122.28 8.6 122.873 9.12 123.3 9.8C123.74 10.4667 123.96 11.2533 123.96 12.16C123.96 12.7333 123.853 13.1467 123.64 13.4C123.44 13.64 123.093 13.76 122.6 13.76H116.14C116.14 14.08 116.253 14.4067 116.48 14.74C116.707 15.06 117.047 15.3333 117.5 15.56C117.953 15.7867 118.493 15.9 119.12 15.9C119.68 15.9 120.12 15.82 120.44 15.66C120.76 15.4867 121.093 15.2333 121.44 14.9C121.693 14.6733 121.953 14.56 122.22 14.56C122.527 14.56 122.813 14.68 123.08 14.92C123.347 15.1467 123.48 15.4067 123.48 15.7C123.48 15.94 123.4 16.1733 123.24 16.4C122.96 16.84 122.487 17.2533 121.82 17.64C121.153 18.0133 120.28 18.2 119.2 18.2ZM121.32 11.96C121.44 11.96 121.513 11.94 121.54 11.9C121.58 11.86 121.6 11.7867 121.6 11.68C121.6 11.16 121.347 10.7267 120.84 10.38C120.347 10.0333 119.733 9.86 119 9.86C118.413 9.86 117.9 9.97333 117.46 10.2C117.033 10.4267 116.707 10.7067 116.48 11.04C116.253 11.36 116.14 11.6667 116.14 11.96H121.32Z" fill="#55111D"/>
</svg>
