<svg width="119" height="19" viewBox="0 0 119 19" fill="none" xmlns="http://www.w3.org/2000/svg">
<path d="M4.83203 18H0.964844L0.988281 16.7695H4.83203C6.05859 16.7695 7.11328 16.4961 7.99609 15.9492C8.88672 15.3945 9.57422 14.6289 10.0586 13.6523C10.543 12.6758 10.7852 11.543 10.7852 10.2539V8.66016C10.7852 7.67578 10.6445 6.78516 10.3633 5.98828C10.0898 5.19141 9.69531 4.51172 9.17969 3.94922C8.66406 3.37891 8.04688 2.94141 7.32812 2.63672C6.61719 2.33203 5.82031 2.17969 4.9375 2.17969H0.894531V0.9375H4.9375C6 0.9375 6.97266 1.12109 7.85547 1.48828C8.74609 1.84766 9.51562 2.37109 10.1641 3.05859C10.8203 3.73828 11.3242 4.55469 11.6758 5.50781C12.0352 6.46094 12.2148 7.52344 12.2148 8.69531V10.2539C12.2148 11.4258 12.0352 12.4883 11.6758 13.4414C11.3242 14.3945 10.8203 15.2109 10.1641 15.8906C9.50781 16.5703 8.73047 17.0938 7.83203 17.4609C6.93359 17.8203 5.93359 18 4.83203 18ZM1.60938 0.9375V18H0.167969V0.9375H1.60938ZM14.793 11.8594V11.4727C14.793 10.5508 14.9258 9.69922 15.1914 8.91797C15.457 8.13672 15.8359 7.46094 16.3281 6.89062C16.8281 6.32031 17.4258 5.87891 18.1211 5.56641C18.8164 5.24609 19.5898 5.08594 20.4414 5.08594C21.3008 5.08594 22.0781 5.24609 22.7734 5.56641C23.4688 5.87891 24.0664 6.32031 24.5664 6.89062C25.0664 7.46094 25.4492 8.13672 25.7148 8.91797C25.9805 9.69922 26.1133 10.5508 26.1133 11.4727V11.8594C26.1133 12.7812 25.9805 13.6328 25.7148 14.4141C25.4492 15.1875 25.0664 15.8594 24.5664 16.4297C24.0742 17 23.4805 17.4453 22.7852 17.7656C22.0898 18.0781 21.3164 18.2344 20.4648 18.2344C19.6055 18.2344 18.8281 18.0781 18.1328 17.7656C17.4375 17.4453 16.8398 17 16.3398 16.4297C15.8398 15.8594 15.457 15.1875 15.1914 14.4141C14.9258 13.6328 14.793 12.7812 14.793 11.8594ZM16.1875 11.4727V11.8594C16.1875 12.5547 16.2812 13.2148 16.4688 13.8398C16.6562 14.457 16.9297 15.0078 17.2891 15.4922C17.6484 15.9688 18.0938 16.3438 18.625 16.6172C19.1562 16.8906 19.7695 17.0273 20.4648 17.0273C21.1523 17.0273 21.7578 16.8906 22.2812 16.6172C22.8125 16.3438 23.2578 15.9688 23.6172 15.4922C23.9766 15.0078 24.2461 14.457 24.4258 13.8398C24.6133 13.2148 24.707 12.5547 24.707 11.8594V11.4727C24.707 10.7852 24.6133 10.1328 24.4258 9.51562C24.2461 8.89844 23.9727 8.34766 23.6055 7.86328C23.2461 7.37891 22.8008 6.99609 22.2695 6.71484C21.7383 6.43359 21.1289 6.29297 20.4414 6.29297C19.7539 6.29297 19.1445 6.43359 18.6133 6.71484C18.0898 6.99609 17.6445 7.37891 17.2773 7.86328C16.918 8.34766 16.6445 8.89844 16.457 9.51562C16.2773 10.1328 16.1875 10.7852 16.1875 11.4727ZM33.6953 17.0273C34.2891 17.0273 34.8438 16.918 35.3594 16.6992C35.8828 16.4727 36.3125 16.1406 36.6484 15.7031C36.9922 15.2578 37.1875 14.7148 37.2344 14.0742H38.5703C38.5312 14.8789 38.2852 15.5977 37.832 16.2305C37.3867 16.8555 36.8008 17.3477 36.0742 17.707C35.3555 18.0586 34.5625 18.2344 33.6953 18.2344C32.8125 18.2344 32.0312 18.0742 31.3516 17.7539C30.6797 17.4336 30.1172 16.9883 29.6641 16.418C29.2109 15.8398 28.8672 15.168 28.6328 14.4023C28.4062 13.6289 28.293 12.7969 28.293 11.9062V11.4141C28.293 10.5234 28.4062 9.69531 28.6328 8.92969C28.8672 8.15625 29.2109 7.48438 29.6641 6.91406C30.1172 6.33594 30.6797 5.88672 31.3516 5.56641C32.0234 5.24609 32.8008 5.08594 33.6836 5.08594C34.5898 5.08594 35.4023 5.26953 36.1211 5.63672C36.8477 6.00391 37.4258 6.52344 37.8555 7.19531C38.293 7.86719 38.5312 8.66406 38.5703 9.58594H37.2344C37.1953 8.90625 37.0156 8.32031 36.6953 7.82812C36.375 7.33594 35.9531 6.95703 35.4297 6.69141C34.9062 6.42578 34.3242 6.29297 33.6836 6.29297C32.9648 6.29297 32.3516 6.43359 31.8438 6.71484C31.3359 6.98828 30.9219 7.36719 30.6016 7.85156C30.2891 8.32812 30.0586 8.875 29.9102 9.49219C29.7617 10.1016 29.6875 10.7422 29.6875 11.4141V11.9062C29.6875 12.5859 29.7578 13.2344 29.8984 13.8516C30.0469 14.4609 30.2773 15.0039 30.5898 15.4805C30.9102 15.957 31.3242 16.3359 31.832 16.6172C32.3477 16.8906 32.9688 17.0273 33.6953 17.0273ZM46.1875 5.32031V6.46875H39.8359V5.32031H46.1875ZM42.168 2.0625H43.5625V14.918C43.5625 15.5039 43.6406 15.9453 43.7969 16.2422C43.9531 16.5391 44.1562 16.7383 44.4062 16.8398C44.6562 16.9414 44.9258 16.9922 45.2148 16.9922C45.4258 16.9922 45.6289 16.9805 45.8242 16.957C46.0195 16.9258 46.1953 16.8945 46.3516 16.8633L46.4102 18.0469C46.2383 18.1016 46.0156 18.1445 45.7422 18.1758C45.4688 18.2148 45.1953 18.2344 44.9219 18.2344C44.3828 18.2344 43.9062 18.1367 43.4922 17.9414C43.0781 17.7383 42.7539 17.3945 42.5195 16.9102C42.2852 16.418 42.168 15.75 42.168 14.9062V2.0625ZM48.1211 11.8594V11.4727C48.1211 10.5508 48.2539 9.69922 48.5195 8.91797C48.7852 8.13672 49.1641 7.46094 49.6562 6.89062C50.1562 6.32031 50.7539 5.87891 51.4492 5.56641C52.1445 5.24609 52.918 5.08594 53.7695 5.08594C54.6289 5.08594 55.4062 5.24609 56.1016 5.56641C56.7969 5.87891 57.3945 6.32031 57.8945 6.89062C58.3945 7.46094 58.7773 8.13672 59.043 8.91797C59.3086 9.69922 59.4414 10.5508 59.4414 11.4727V11.8594C59.4414 12.7812 59.3086 13.6328 59.043 14.4141C58.7773 15.1875 58.3945 15.8594 57.8945 16.4297C57.4023 17 56.8086 17.4453 56.1133 17.7656C55.418 18.0781 54.6445 18.2344 53.793 18.2344C52.9336 18.2344 52.1562 18.0781 51.4609 17.7656C50.7656 17.4453 50.168 17 49.668 16.4297C49.168 15.8594 48.7852 15.1875 48.5195 14.4141C48.2539 13.6328 48.1211 12.7812 48.1211 11.8594ZM49.5156 11.4727V11.8594C49.5156 12.5547 49.6094 13.2148 49.7969 13.8398C49.9844 14.457 50.2578 15.0078 50.6172 15.4922C50.9766 15.9688 51.4219 16.3438 51.9531 16.6172C52.4844 16.8906 53.0977 17.0273 53.793 17.0273C54.4805 17.0273 55.0859 16.8906 55.6094 16.6172C56.1406 16.3438 56.5859 15.9688 56.9453 15.4922C57.3047 15.0078 57.5742 14.457 57.7539 13.8398C57.9414 13.2148 58.0352 12.5547 58.0352 11.8594V11.4727C58.0352 10.7852 57.9414 10.1328 57.7539 9.51562C57.5742 8.89844 57.3008 8.34766 56.9336 7.86328C56.5742 7.37891 56.1289 6.99609 55.5977 6.71484C55.0664 6.43359 54.457 6.29297 53.7695 6.29297C53.082 6.29297 52.4727 6.43359 51.9414 6.71484C51.418 6.99609 50.9727 7.37891 50.6055 7.86328C50.2461 8.34766 49.9727 8.89844 49.7852 9.51562C49.6055 10.1328 49.5156 10.7852 49.5156 11.4727ZM63.7422 7.41797V18H62.3477V5.32031H63.707L63.7422 7.41797ZM68.2305 5.22656L68.1953 6.51562C68.0391 6.49219 67.8867 6.47266 67.7383 6.45703C67.5898 6.44141 67.4297 6.43359 67.2578 6.43359C66.6484 6.43359 66.1133 6.54688 65.6523 6.77344C65.1992 6.99219 64.8164 7.30078 64.5039 7.69922C64.1914 8.08984 63.9531 8.55078 63.7891 9.08203C63.625 9.60547 63.5312 10.168 63.5078 10.7695L62.9922 10.9688C62.9922 10.1406 63.0781 9.37109 63.25 8.66016C63.4219 7.94922 63.6836 7.32812 64.0352 6.79688C64.3945 6.25781 64.8438 5.83984 65.3828 5.54297C65.9297 5.23828 66.5703 5.08594 67.3047 5.08594C67.4844 5.08594 67.6602 5.10156 67.832 5.13281C68.0117 5.15625 68.1445 5.1875 68.2305 5.22656ZM79.8086 12.2812H83.6055C83.543 13.4531 83.2227 14.4883 82.6445 15.3867C82.0742 16.2773 81.2812 16.9766 80.2656 17.4844C79.25 17.9844 78.043 18.2344 76.6445 18.2344C75.5273 18.2344 74.5273 18.043 73.6445 17.6602C72.7617 17.2773 72.0117 16.7305 71.3945 16.0195C70.7852 15.3008 70.3164 14.4375 69.9883 13.4297C69.668 12.4141 69.5078 11.2695 69.5078 9.99609V8.95312C69.5078 7.67969 69.6758 6.53516 70.0117 5.51953C70.3477 4.50391 70.8281 3.63672 71.4531 2.91797C72.0781 2.19922 72.8281 1.64844 73.7031 1.26562C74.5781 0.882812 75.5547 0.691406 76.6328 0.691406C78.0859 0.691406 79.3125 0.953125 80.3125 1.47656C81.3125 2 82.0859 2.71875 82.6328 3.63281C83.1875 4.54688 83.5195 5.58984 83.6289 6.76172H79.8203C79.7891 6.09766 79.6641 5.53906 79.4453 5.08594C79.2266 4.625 78.8906 4.27734 78.4375 4.04297C77.9844 3.80859 77.3828 3.69141 76.6328 3.69141C76.0859 3.69141 75.6055 3.79297 75.1914 3.99609C74.7852 4.19922 74.4453 4.51562 74.1719 4.94531C73.9062 5.375 73.707 5.92188 73.5742 6.58594C73.4414 7.24219 73.375 8.02344 73.375 8.92969V9.99609C73.375 10.8945 73.4336 11.6719 73.5508 12.3281C73.668 12.9844 73.8555 13.5273 74.1133 13.957C74.3789 14.3867 74.7188 14.707 75.1328 14.918C75.5469 15.1289 76.0508 15.2344 76.6445 15.2344C77.3242 15.2344 77.8906 15.1289 78.3438 14.918C78.7969 14.6992 79.1445 14.3711 79.3867 13.9336C79.6289 13.4961 79.7695 12.9453 79.8086 12.2812ZM92.2539 14.9766V9.53906C92.2539 9.15625 92.1953 8.82812 92.0781 8.55469C91.9609 8.28125 91.7773 8.06641 91.5273 7.91016C91.2773 7.75391 90.9531 7.67578 90.5547 7.67578C90.2188 7.67578 89.9258 7.73438 89.6758 7.85156C89.4336 7.96875 89.2461 8.13672 89.1133 8.35547C88.9883 8.57422 88.9258 8.84375 88.9258 9.16406H85.2695C85.2695 8.59375 85.3984 8.0625 85.6562 7.57031C85.9141 7.07812 86.2812 6.64453 86.7578 6.26953C87.2422 5.89453 87.8203 5.60547 88.4922 5.40234C89.1641 5.19141 89.918 5.08594 90.7539 5.08594C91.7461 5.08594 92.6289 5.25391 93.4023 5.58984C94.1836 5.91797 94.8008 6.41406 95.2539 7.07812C95.707 7.73438 95.9336 8.5625 95.9336 9.5625V14.8711C95.9336 15.6367 95.9766 16.2383 96.0625 16.6758C96.1562 17.1055 96.2891 17.4805 96.4609 17.8008V18H92.7695C92.5977 17.6328 92.4688 17.1797 92.3828 16.6406C92.2969 16.0938 92.2539 15.5391 92.2539 14.9766ZM92.7109 10.2656L92.7344 12.2812H90.918C90.5117 12.2812 90.1602 12.332 89.8633 12.4336C89.5742 12.5352 89.3398 12.6758 89.1602 12.8555C88.9805 13.0273 88.8477 13.2305 88.7617 13.4648C88.6836 13.6914 88.6445 13.9414 88.6445 14.2148C88.6445 14.4727 88.707 14.707 88.832 14.918C88.957 15.1211 89.1289 15.2812 89.3477 15.3984C89.5664 15.5156 89.8203 15.5742 90.1094 15.5742C90.5859 15.5742 90.9922 15.4805 91.3281 15.293C91.6719 15.1055 91.9375 14.8789 92.125 14.6133C92.3125 14.3398 92.4062 14.0859 92.4062 13.8516L93.2852 15.375C93.1445 15.6875 92.9727 16.0117 92.7695 16.3477C92.5664 16.6758 92.3086 16.9844 91.9961 17.2734C91.6836 17.5547 91.3047 17.7852 90.8594 17.9648C90.4219 18.1445 89.8945 18.2344 89.2773 18.2344C88.4805 18.2344 87.7578 18.0742 87.1094 17.7539C86.4609 17.4258 85.9414 16.9766 85.5508 16.4062C85.168 15.8359 84.9766 15.1797 84.9766 14.4375C84.9766 13.7734 85.0977 13.1836 85.3398 12.668C85.582 12.1523 85.9453 11.7148 86.4297 11.3555C86.9219 10.9961 87.5391 10.7266 88.2812 10.5469C89.0234 10.3594 89.8906 10.2656 90.8828 10.2656H92.7109ZM102.004 8.27344V18H98.3477V5.32031H101.781L102.004 8.27344ZM105.789 5.22656L105.73 8.63672C105.574 8.61328 105.371 8.59375 105.121 8.57812C104.871 8.55469 104.656 8.54297 104.477 8.54297C104.008 8.54297 103.602 8.60156 103.258 8.71875C102.922 8.82812 102.641 8.99219 102.414 9.21094C102.195 9.42969 102.031 9.70312 101.922 10.0312C101.812 10.3516 101.758 10.7227 101.758 11.1445L101.066 10.8047C101.066 9.96875 101.148 9.20312 101.312 8.50781C101.477 7.8125 101.715 7.21094 102.027 6.70312C102.34 6.1875 102.723 5.78906 103.176 5.50781C103.629 5.22656 104.145 5.08594 104.723 5.08594C104.91 5.08594 105.102 5.09766 105.297 5.12109C105.492 5.14453 105.656 5.17969 105.789 5.22656ZM113.031 18.2344C112.023 18.2344 111.121 18.0742 110.324 17.7539C109.527 17.4336 108.852 16.9922 108.297 16.4297C107.75 15.8594 107.332 15.2031 107.043 14.4609C106.754 13.7188 106.609 12.9258 106.609 12.082V11.6367C106.609 10.6914 106.742 9.82031 107.008 9.02344C107.273 8.22656 107.66 7.53516 108.168 6.94922C108.684 6.35547 109.316 5.89844 110.066 5.57812C110.816 5.25 111.672 5.08594 112.633 5.08594C113.531 5.08594 114.332 5.23438 115.035 5.53125C115.738 5.82031 116.332 6.23828 116.816 6.78516C117.301 7.32422 117.668 7.97656 117.918 8.74219C118.176 9.5 118.305 10.3516 118.305 11.2969V12.7969H108.086V10.4414H114.719V10.1602C114.719 9.71484 114.637 9.32422 114.473 8.98828C114.316 8.65234 114.082 8.39453 113.77 8.21484C113.465 8.02734 113.078 7.93359 112.609 7.93359C112.164 7.93359 111.793 8.02734 111.496 8.21484C111.199 8.40234 110.961 8.66797 110.781 9.01172C110.609 9.34766 110.484 9.74219 110.406 10.1953C110.328 10.6406 110.289 11.1211 110.289 11.6367V12.082C110.289 12.5742 110.355 13.0234 110.488 13.4297C110.621 13.8359 110.816 14.1836 111.074 14.4727C111.332 14.7617 111.645 14.9883 112.012 15.1523C112.379 15.3164 112.797 15.3984 113.266 15.3984C113.844 15.3984 114.395 15.2891 114.918 15.0703C115.441 14.8438 115.895 14.4922 116.277 14.0156L117.988 15.9727C117.73 16.3477 117.367 16.7109 116.898 17.0625C116.438 17.4062 115.883 17.6875 115.234 17.9062C114.586 18.125 113.852 18.2344 113.031 18.2344Z" fill="#B3536B"/>
</svg>
